<!--
  SPDX-FileCopyrightText: 2026 [ernolf] Raphael Gradenwitz <raphael.gradenwitz@googlemail.com>
  SPDX-License-Identifier: AGPL-3.0-or-later
-->
<svg viewBox="0 0 64 64" width="64" height="64" xmlns="http://www.w3.org/2000/svg">
	<defs>
		<mask id="oath-screen" maskUnits="userSpaceOnUse">
			<rect x="19" y="9" width="26" height="11" rx="2" fill="#fff"/>
			<text x="32" y="17.6" font-family="sans-serif" font-size="7.5" font-weight="bold" text-anchor="middle" fill="#000">OATH</text>
		</mask>
	</defs>
	<g fill="#000">
		<rect x="14" y="5" width="36" height="54" rx="6" fill="none" stroke="#000" stroke-width="3"/>
		<rect x="19" y="9" width="26" height="11" rx="2" mask="url(#oath-screen)"/>
		<rect x="21.5" y="26" width="5" height="5" rx="1.3"/>
		<rect x="29.5" y="26" width="5" height="5" rx="1.3"/>
		<rect x="37.5" y="26" width="5" height="5" rx="1.3"/>
		<rect x="21.5" y="34" width="5" height="5" rx="1.3"/>
		<rect x="29.5" y="34" width="5" height="5" rx="1.3"/>
		<rect x="37.5" y="34" width="5" height="5" rx="1.3"/>
		<rect x="21.5" y="42" width="5" height="5" rx="1.3"/>
		<rect x="29.5" y="42" width="5" height="5" rx="1.3"/>
		<rect x="37.5" y="42" width="5" height="5" rx="1.3"/>
		<rect x="29.5" y="50" width="5" height="5" rx="1.3"/>
	</g>
</svg>
